<svg width="20" height="20" viewBox="0 0 20 20" fill="none" xmlns="http://www.w3.org/2000/svg">
<path d="M9.99967 15.4167C12.9912 15.4167 15.4163 12.9916 15.4163 10C15.4163 7.0085 12.9912 4.58337 9.99967 4.58337C7.00813 4.58337 4.58301 7.0085 4.58301 10C4.58301 12.9916 7.00813 15.4167 9.99967 15.4167Z" stroke="white" stroke-opacity="0.6" stroke-width="1.5" stroke-linecap="round" stroke-linejoin="round"/>
<path d="M15.9503 15.95L15.842 15.8416M15.842 4.15829L15.9503 4.04996L15.842 4.15829ZM4.05033 15.95L4.15866 15.8416L4.05033 15.95ZM10.0003 1.73329V1.66663V1.73329ZM10.0003 18.3333V18.2666V18.3333ZM1.73366 9.99996H1.66699H1.73366ZM18.3337 9.99996H18.267H18.3337ZM4.15866 4.15829L4.05033 4.04996L4.15866 4.15829Z" stroke="white" stroke-opacity="0.6" stroke-width="2" stroke-linecap="round" stroke-linejoin="round"/>
</svg>
